<svg width="157" height="69" viewBox="0 0 157 69" fill="none" xmlns="http://www.w3.org/2000/svg">
<path d="M54.73 62.36C53.29 62.36 52.01 62.03 50.89 61.37C49.79 60.69 48.92 59.76 48.28 58.58C47.66 57.4 47.35 56.04 47.35 54.5C47.35 52.96 47.66 51.6 48.28 50.42C48.9 49.24 49.76 48.32 50.86 47.66C51.98 46.98 53.25 46.64 54.67 46.64C56.09 46.64 57.35 46.96 58.45 47.6C59.55 48.22 60.4 49.09 61 50.21L59.44 51.05C58.98 50.19 58.33 49.52 57.49 49.04C56.67 48.54 55.73 48.29 54.67 48.29C53.59 48.29 52.63 48.56 51.79 49.1C50.97 49.62 50.32 50.35 49.84 51.29C49.38 52.21 49.15 53.28 49.15 54.5C49.15 55.72 49.39 56.8 49.87 57.74C50.35 58.66 51.01 59.39 51.85 59.93C52.69 60.45 53.65 60.71 54.73 60.71C55.81 60.71 56.77 60.44 57.61 59.9C58.45 59.34 59.09 58.57 59.53 57.59L61.12 58.43C60.52 59.65 59.66 60.61 58.54 61.31C57.44 62.01 56.17 62.36 54.73 62.36ZM70.9019 62.36C69.4619 62.36 68.1819 62.03 67.0619 61.37C65.9619 60.69 65.0919 59.76 64.4519 58.58C63.8319 57.4 63.5219 56.04 63.5219 54.5C63.5219 52.96 63.8319 51.6 64.4519 50.42C65.0719 49.24 65.9319 48.32 67.0319 47.66C68.1519 46.98 69.4219 46.64 70.8419 46.64C72.2819 46.64 73.5519 46.98 74.6519 47.66C75.7719 48.32 76.6419 49.24 77.2619 50.42C77.8819 51.6 78.1919 52.96 78.1919 54.5C78.1919 56.04 77.8819 57.4 77.2619 58.58C76.6419 59.76 75.7819 60.69 74.6819 61.37C73.5819 62.03 72.3219 62.36 70.9019 62.36ZM70.9019 60.71C71.9819 60.71 72.9319 60.45 73.7519 59.93C74.5719 59.39 75.2119 58.66 75.6719 57.74C76.1519 56.8 76.3919 55.72 76.3919 54.5C76.3919 53.28 76.1519 52.21 75.6719 51.29C75.2119 50.35 74.5619 49.62 73.7219 49.1C72.8819 48.56 71.9219 48.29 70.8419 48.29C69.7619 48.29 68.8019 48.56 67.9619 49.1C67.1419 49.62 66.4919 50.35 66.0119 51.29C65.5519 52.21 65.3219 53.28 65.3219 54.5C65.3219 55.72 65.5619 56.8 66.0419 57.74C66.5219 58.66 67.1819 59.39 68.0219 59.93C68.8619 60.45 69.8219 60.71 70.9019 60.71ZM81.7949 62V47H83.4749L83.5949 49.76V62H81.7949ZM92.5649 62V54.32H94.3649V62H92.5649ZM92.5649 54.32C92.5649 52.66 92.3649 51.4 91.9649 50.54C91.5849 49.68 91.0549 49.1 90.3749 48.8C89.7149 48.48 88.9649 48.32 88.1249 48.32C86.7049 48.32 85.5949 48.85 84.7949 49.91C83.9949 50.95 83.5949 52.41 83.5949 54.29H82.4849C82.4849 52.69 82.7149 51.32 83.1749 50.18C83.6349 49.04 84.3049 48.17 85.1849 47.57C86.0849 46.95 87.1749 46.64 88.4549 46.64C89.6149 46.64 90.6349 46.88 91.5149 47.36C92.4149 47.82 93.1149 48.56 93.6149 49.58C94.1349 50.6 94.3849 51.95 94.3649 53.63V54.32H92.5649ZM98.4063 62V47H100.086L100.206 49.76V62H98.4063ZM109.176 62V54.32H110.976V62H109.176ZM109.176 54.32C109.176 52.66 108.976 51.4 108.576 50.54C108.196 49.68 107.666 49.1 106.986 48.8C106.326 48.48 105.576 48.32 104.736 48.32C103.316 48.32 102.206 48.85 101.406 49.91C100.606 50.95 100.206 52.41 100.206 54.29H99.0963C99.0963 52.69 99.3263 51.32 99.7863 50.18C100.246 49.04 100.916 48.17 101.796 47.57C102.696 46.95 103.786 46.64 105.066 46.64C106.226 46.64 107.246 46.88 108.126 47.36C109.026 47.82 109.726 48.56 110.226 49.58C110.746 50.6 110.996 51.95 110.976 53.63V54.32H109.176ZM121.498 62.36C120.058 62.36 118.778 62.03 117.658 61.37C116.558 60.69 115.688 59.76 115.048 58.58C114.428 57.4 114.118 56.04 114.118 54.5C114.118 52.96 114.428 51.6 115.048 50.42C115.668 49.24 116.518 48.32 117.598 47.66C118.698 46.98 119.948 46.64 121.348 46.64C122.768 46.64 123.968 46.99 124.948 47.69C125.948 48.37 126.708 49.32 127.228 50.54C127.748 51.74 128.008 53.13 128.008 54.71H115.198L115.888 54.14C115.888 55.52 116.118 56.7 116.578 57.68C117.038 58.66 117.688 59.41 118.528 59.93C119.388 60.45 120.378 60.71 121.498 60.71C122.658 60.71 123.638 60.43 124.438 59.87C125.258 59.29 125.898 58.55 126.358 57.65L127.858 58.58C127.478 59.32 126.978 59.98 126.358 60.56C125.758 61.12 125.048 61.56 124.228 61.88C123.408 62.2 122.498 62.36 121.498 62.36ZM116.038 53.6L115.288 53.06H126.838L126.088 53.63C126.088 52.57 125.888 51.64 125.488 50.84C125.108 50.04 124.568 49.42 123.868 48.98C123.168 48.52 122.328 48.29 121.348 48.29C120.388 48.29 119.498 48.52 118.678 48.98C117.878 49.42 117.238 50.04 116.758 50.84C116.278 51.62 116.038 52.54 116.038 53.6ZM137.787 62.36C136.347 62.36 135.067 62.03 133.947 61.37C132.847 60.69 131.977 59.76 131.337 58.58C130.717 57.4 130.407 56.04 130.407 54.5C130.407 52.96 130.717 51.6 131.337 50.42C131.957 49.24 132.817 48.32 133.917 47.66C135.037 46.98 136.307 46.64 137.727 46.64C139.147 46.64 140.407 46.96 141.507 47.6C142.607 48.22 143.457 49.09 144.057 50.21L142.497 51.05C142.037 50.19 141.387 49.52 140.547 49.04C139.727 48.54 138.787 48.29 137.727 48.29C136.647 48.29 135.687 48.56 134.847 49.1C134.027 49.62 133.377 50.35 132.897 51.29C132.437 52.21 132.207 53.28 132.207 54.5C132.207 55.72 132.447 56.8 132.927 57.74C133.407 58.66 134.067 59.39 134.907 59.93C135.747 60.45 136.707 60.71 137.787 60.71C138.867 60.71 139.827 60.44 140.667 59.9C141.507 59.34 142.147 58.57 142.587 57.59L144.177 58.43C143.577 59.65 142.717 60.61 141.597 61.31C140.497 62.01 139.227 62.36 137.787 62.36ZM152.909 62.36C151.529 62.36 150.449 62 149.669 61.28C148.889 60.54 148.499 59.5 148.499 58.16V42.32H150.299V58.16C150.299 58.96 150.529 59.59 150.989 60.05C151.449 60.49 152.089 60.71 152.909 60.71C153.149 60.71 153.379 60.68 153.599 60.62C153.839 60.54 154.179 60.35 154.619 60.05L155.369 61.61C154.829 61.93 154.379 62.13 154.019 62.21C153.659 62.31 153.289 62.36 152.909 62.36ZM145.829 48.65V47H155.069V48.65H145.829Z" fill="black"/>
<g clip-path="url(#clip0_20_176)">
<path d="M43.6367 4.25665V8.61332C43.6367 15.69 37.8801 21.45 30.8001 21.45H27.3634V17.7833H30.8001C35.8567 17.7833 39.9701 13.67 39.9701 8.61332V7.92665H34.8134C32.1034 7.92665 29.6301 8.96665 27.7734 10.6667C27.1534 9.59999 26.3834 8.62999 25.4934 7.78665C27.9801 5.59332 31.2434 4.25999 34.8101 4.25999H43.6334L43.6367 4.25665Z" fill="url(#paint0_linear_20_176)"/>
<path d="M14.9834 4.25665H4.89673V7.34999C4.89673 15.1233 11.2201 21.4466 18.9934 21.4466H24.1701L24.1501 43.7233H27.8167V17.0933C27.8167 10.0167 22.0601 4.25665 14.9801 4.25665H14.9834ZM18.9934 17.78C13.4334 17.78 8.87673 13.41 8.58006 7.92332H14.9834C20.3134 7.90332 24.5101 12.4933 24.1701 17.78H18.9934Z" fill="url(#paint1_linear_20_176)"/>
<path d="M24.1733 17.78H20.76V21.4467H24.1733V17.78Z" fill="url(#paint2_linear_20_176)"/>
<path d="M31.2334 17.78H27.8201V21.4467H31.2334V17.78Z" fill="url(#paint3_linear_20_176)"/>
</g>
<path d="M32.25 44V23H34.05V44H32.25ZM43.02 44V36.32H44.82V44H43.02ZM43.02 36.32C43.02 34.66 42.82 33.4 42.42 32.54C42.04 31.68 41.51 31.1 40.83 30.8C40.17 30.48 39.42 30.32 38.58 30.32C37.16 30.32 36.05 30.85 35.25 31.91C34.45 32.95 34.05 34.41 34.05 36.29H32.94C32.94 34.69 33.17 33.32 33.63 32.18C34.09 31.04 34.76 30.17 35.64 29.57C36.54 28.95 37.63 28.64 38.91 28.64C40.07 28.64 41.09 28.88 41.97 29.36C42.87 29.82 43.57 30.56 44.07 31.58C44.59 32.6 44.84 33.95 44.82 35.63V36.32H43.02ZM49.6113 35.78C49.6113 34.16 49.9113 32.85 50.5113 31.85C51.1313 30.85 51.9213 30.12 52.8813 29.66C53.8613 29.18 54.8913 28.94 55.9713 28.94V30.59C55.0913 30.59 54.2413 30.75 53.4213 31.07C52.6213 31.37 51.9613 31.89 51.4413 32.63C50.9213 33.35 50.6613 34.34 50.6613 35.6L49.6113 35.78ZM48.8613 44V29H50.6613V44H48.8613ZM58.6493 44V29H60.4493V44H58.6493ZM59.5793 25.1C59.2593 25.1 58.9793 24.98 58.7393 24.74C58.4993 24.5 58.3793 24.22 58.3793 23.9C58.3793 23.56 58.4993 23.28 58.7393 23.06C58.9793 22.82 59.2593 22.7 59.5793 22.7C59.9193 22.7 60.1993 22.82 60.4193 23.06C60.6593 23.28 60.7793 23.56 60.7793 23.9C60.7793 24.22 60.6593 24.5 60.4193 24.74C60.1993 24.98 59.9193 25.1 59.5793 25.1ZM69.5611 44L75.8611 29H77.7511L71.4211 44H69.5611ZM69.5011 44L63.1711 29H65.0311L71.3311 44H69.5011ZM86.4839 44.36C85.0439 44.36 83.7639 44.03 82.6439 43.37C81.5439 42.69 80.6739 41.76 80.0339 40.58C79.4139 39.4 79.1039 38.04 79.1039 36.5C79.1039 34.96 79.4139 33.6 80.0339 32.42C80.6539 31.24 81.5039 30.32 82.5839 29.66C83.6839 28.98 84.9339 28.64 86.3339 28.64C87.7539 28.64 88.9539 28.99 89.9339 29.69C90.9339 30.37 91.6939 31.32 92.2139 32.54C92.7339 33.74 92.9939 35.13 92.9939 36.71H80.1839L80.8739 36.14C80.8739 37.52 81.1039 38.7 81.5639 39.68C82.0239 40.66 82.6739 41.41 83.5139 41.93C84.3739 42.45 85.3639 42.71 86.4839 42.71C87.6439 42.71 88.6239 42.43 89.4239 41.87C90.2439 41.29 90.8839 40.55 91.3439 39.65L92.8439 40.58C92.4639 41.32 91.9639 41.98 91.3439 42.56C90.7439 43.12 90.0339 43.56 89.2139 43.88C88.3939 44.2 87.4839 44.36 86.4839 44.36ZM81.0239 35.6L80.2739 35.06H91.8239L91.0739 35.63C91.0739 34.57 90.8739 33.64 90.4739 32.84C90.0939 32.04 89.5539 31.42 88.8539 30.98C88.1539 30.52 87.3139 30.29 86.3339 30.29C85.3739 30.29 84.4839 30.52 83.6639 30.98C82.8639 31.42 82.2239 32.04 81.7439 32.84C81.2639 33.62 81.0239 34.54 81.0239 35.6Z" fill="black"/>
<defs>
<linearGradient id="paint0_linear_20_176" x1="25.4934" y1="12.8533" x2="43.6367" y2="12.8533" gradientUnits="userSpaceOnUse">
<stop offset="0.1" stop-color="#7ABE4B"/>
<stop offset="1" stop-color="#ABD06D"/>
</linearGradient>
<linearGradient id="paint1_linear_20_176" x1="4.89673" y1="23.99" x2="27.8201" y2="23.99" gradientUnits="userSpaceOnUse">
<stop stop-color="#499E50"/>
<stop offset="0.91" stop-color="#78BD4B"/>
</linearGradient>
<linearGradient id="paint2_linear_20_176" x1="20.76" y1="19.6133" x2="24.17" y2="19.6133" gradientUnits="userSpaceOnUse">
<stop stop-color="#6CB44D"/>
<stop offset="1" stop-color="#2C7921"/>
</linearGradient>
<linearGradient id="paint3_linear_20_176" x1="27.8201" y1="19.6133" x2="31.2334" y2="19.6133" gradientUnits="userSpaceOnUse">
<stop stop-color="#2C7921"/>
<stop offset="1" stop-color="#8CC458"/>
</linearGradient>
<clipPath id="clip0_20_176">
<rect width="50" height="50" fill="white"/>
</clipPath>
</defs>
</svg>
